<svg width="116" height="18" viewBox="0 0 116 18" fill="none" xmlns="http://www.w3.org/2000/svg">
<path d="M52.7637 12.7422C52.3945 13.1842 51.8727 13.5283 51.1982 13.7744C50.5238 14.016 49.7764 14.1367 48.9561 14.1367C48.0947 14.1367 47.3382 13.9499 46.6865 13.5762C46.0394 13.1979 45.5381 12.651 45.1826 11.9355C44.8317 11.2201 44.6517 10.3792 44.6426 9.41309V8.73633C44.6426 7.74284 44.8089 6.88379 45.1416 6.15918C45.4788 5.43001 45.9619 4.87402 46.5908 4.49121C47.2243 4.10384 47.9648 3.91016 48.8125 3.91016C49.9928 3.91016 50.9157 4.19271 51.5811 4.75781C52.2464 5.31836 52.6406 6.13639 52.7637 7.21191H50.7676C50.6764 6.64225 50.4736 6.22526 50.1592 5.96094C49.8493 5.69661 49.4209 5.56445 48.874 5.56445C48.1768 5.56445 47.6458 5.8265 47.2812 6.35059C46.9167 6.87467 46.7321 7.65397 46.7275 8.68848V9.32422C46.7275 10.3678 46.9258 11.1562 47.3223 11.6895C47.7188 12.2227 48.2998 12.4893 49.0654 12.4893C49.8356 12.4893 50.3848 12.3252 50.7129 11.9971V10.2812H48.8467V8.77051H52.7637V12.7422ZM57.8633 8.53125L59.9346 4.04688H62.1768L58.9092 10.3906V14H56.8242V10.3906L53.5566 4.04688H55.8057L57.8633 8.53125ZM65.7656 4.04688L68.3223 11.2656L70.8652 4.04688H73.5586V14H71.501V11.2793L71.7061 6.58301L69.0195 14H67.6113L64.9316 6.58984L65.1367 11.2793V14H63.0859V4.04688H65.7656ZM77.4004 10.4932V14H75.3496V4.04688H79.2324C79.9798 4.04688 80.6361 4.18359 81.2012 4.45703C81.7708 4.73047 82.2083 5.12012 82.5137 5.62598C82.819 6.12728 82.9717 6.69922 82.9717 7.3418C82.9717 8.31706 82.6367 9.08724 81.9668 9.65234C81.3014 10.2129 80.3786 10.4932 79.1982 10.4932H77.4004ZM77.4004 8.83203H79.2324C79.7747 8.83203 80.1872 8.70443 80.4697 8.44922C80.7568 8.19401 80.9004 7.82943 80.9004 7.35547C80.9004 6.86784 80.7568 6.47363 80.4697 6.17285C80.1826 5.87207 79.7861 5.71712 79.2803 5.70801H77.4004V8.83203ZM92.5625 9.24902C92.5625 10.2288 92.3893 11.0879 92.043 11.8262C91.6966 12.5645 91.1999 13.1341 90.5527 13.5352C89.9102 13.9362 89.1719 14.1367 88.3379 14.1367C87.513 14.1367 86.777 13.9385 86.1299 13.542C85.4827 13.1455 84.9814 12.5804 84.626 11.8467C84.2705 11.1084 84.0905 10.2607 84.0859 9.30371V8.81152C84.0859 7.83171 84.2614 6.97038 84.6123 6.22754C84.9678 5.48014 85.4668 4.9082 86.1094 4.51172C86.7565 4.11068 87.4948 3.91016 88.3242 3.91016C89.1536 3.91016 89.8896 4.11068 90.5322 4.51172C91.1794 4.9082 91.6784 5.48014 92.0293 6.22754C92.3848 6.97038 92.5625 7.82943 92.5625 8.80469V9.24902ZM90.4844 8.79785C90.4844 7.75423 90.2975 6.96126 89.9238 6.41895C89.5501 5.87663 89.0169 5.60547 88.3242 5.60547C87.6361 5.60547 87.1051 5.87435 86.7314 6.41211C86.3577 6.94531 86.1686 7.72917 86.1641 8.76367V9.24902C86.1641 10.2653 86.3509 11.0537 86.7246 11.6143C87.0983 12.1748 87.6361 12.4551 88.3379 12.4551C89.026 12.4551 89.5547 12.1862 89.9238 11.6484C90.293 11.1061 90.4798 10.3177 90.4844 9.2832V8.79785ZM96.2334 14H94.1826V4.04688H96.2334V14ZM106.234 14H104.184L100.191 7.45117V14H98.1406V4.04688H100.191L104.19 10.6094V4.04688H106.234V14ZM115.312 5.70801H112.264V14H110.213V5.70801H107.205V4.04688H115.312V5.70801Z" fill="#EE4E62"/>
<path fill-rule="evenodd" clip-rule="evenodd" d="M31.9424 4.05434C31.5673 4.05434 31.2119 4.14008 30.8946 4.29294C30.8156 3.02844 29.7623 2.02384 28.4782 2.02384C28.1025 2.02384 27.7464 2.10985 27.4288 2.26327C27.3386 1.00953 26.2904 0.0167847 25.0141 0.0167847C23.6788 0.0167847 22.5925 1.10313 22.5925 2.43847V6.45262C22.5925 6.83346 22.9012 7.14222 23.2821 7.14222C23.6629 7.14222 23.9717 6.83346 23.9717 6.45262V2.43847C23.9717 1.86362 24.4393 1.39598 25.0141 1.39598C25.589 1.39598 26.0566 1.86362 26.0566 2.43847V13.484V15.4911C26.0566 16.0659 25.589 16.5336 25.0141 16.5336C24.4393 16.5336 23.9717 16.0659 23.9717 15.4911V11.4769C23.9717 11.0961 23.6629 10.7873 23.2821 10.7873H13.9811C13.6003 10.7873 13.2915 11.0961 13.2915 11.4769C13.2915 11.8578 13.6003 12.1665 13.9811 12.1665H22.5925V15.4911C22.5925 16.8264 23.6788 17.9128 25.0141 17.9128C26.2905 17.9128 27.3387 16.92 27.4288 15.6663C27.7464 15.8197 28.1025 15.9057 28.4782 15.9057C29.7623 15.9057 30.8156 14.901 30.8946 13.6366C31.2119 13.7895 31.5673 13.8752 31.9424 13.8752C33.2777 13.8752 34.3641 12.7889 34.3641 11.4536V6.47593C34.3641 5.14064 33.2777 4.05434 31.9424 4.05434ZM29.5208 13.484C29.5208 14.0589 29.0531 14.5265 28.4783 14.5265C27.9034 14.5265 27.4358 14.0589 27.4358 13.484V4.44552C27.4358 3.87067 27.9034 3.40303 28.4783 3.40303C29.0531 3.40303 29.5208 3.87067 29.5208 4.44552V13.484ZM31.9424 12.496C32.5172 12.496 32.9849 12.0284 32.9849 11.4536V6.47593C32.9849 5.90117 32.5172 5.43353 31.9424 5.43353C31.3676 5.43353 30.8999 5.90117 30.8999 6.47593V11.4536C30.8999 12.0284 31.3676 12.496 31.9424 12.496Z" fill="#EE4E62"/>
<path fill-rule="evenodd" clip-rule="evenodd" d="M11.2812 10.7873C10.9003 10.7873 10.5916 11.0961 10.5916 11.4769V15.4911C10.5916 16.0659 10.1239 16.5336 9.54908 16.5336C8.97423 16.5336 8.50659 16.0659 8.50659 15.4911V13.484V4.44552V2.43847C8.50659 1.86362 8.97423 1.39598 9.54908 1.39598C10.1239 1.39598 10.5916 1.86362 10.5916 2.43847V6.45262C10.5916 6.83346 10.9003 7.14222 11.2812 7.14222H20.5822C20.963 7.14222 21.2718 6.83346 21.2718 6.45262C21.2718 6.07178 20.963 5.76302 20.5822 5.76302H11.9708V2.43847C11.9708 1.10313 10.8844 0.0167847 9.54908 0.0167847C8.27273 0.0167847 7.22458 1.00953 7.13443 2.26327C6.81676 2.10985 6.46069 2.02384 6.08491 2.02384C4.80088 2.02384 3.74758 3.02854 3.66851 4.29294C3.3513 4.14008 2.99588 4.05434 2.62078 4.05434C1.28544 4.05434 0.199097 5.14068 0.199097 6.47602V11.4536C0.199097 12.7889 1.28544 13.8752 2.62078 13.8752C2.99588 13.8752 3.3513 13.7894 3.66851 13.6366C3.74758 14.9011 4.80088 15.9057 6.08491 15.9057C6.46069 15.9057 6.81671 15.8197 7.13443 15.6662C7.22458 16.92 8.27273 17.9127 9.54908 17.9127C10.8844 17.9127 11.9708 16.8264 11.9708 15.491V11.4769C11.9708 11.0961 11.6621 10.7873 11.2812 10.7873ZM2.62087 12.496C2.04607 12.496 1.57838 12.0284 1.57838 11.4536V6.47602C1.57838 5.90117 2.04602 5.43353 2.62087 5.43353C3.19568 5.43353 3.66332 5.90117 3.66332 6.47602V11.4536C3.66327 12.0284 3.19563 12.496 2.62087 12.496ZM5.04247 13.484C5.04247 14.0589 5.51015 14.5265 6.08495 14.5265C6.6598 14.5265 7.12744 14.0589 7.12744 13.484V4.44552C7.12744 3.87067 6.6598 3.40303 6.08495 3.40303C5.51011 3.40303 5.04247 3.87067 5.04247 4.44552V13.484Z" fill="#EE4E62"/>
<path d="M10.5896 9.00504V9.23624C10.5896 9.61708 10.8984 9.92584 11.2792 9.92584C11.66 9.92584 11.9688 9.61708 11.9688 9.23624V9.00504C11.9688 8.6242 11.66 8.31544 11.2792 8.31544C10.8984 8.31544 10.5896 8.6242 10.5896 9.00504Z" fill="#EE4E62"/>
<path d="M23.9717 8.92837V8.69717C23.9717 8.31632 23.6629 8.00757 23.2821 8.00757C22.9012 8.00757 22.5925 8.31632 22.5925 8.69717V8.92837C22.5925 9.30921 22.9012 9.61796 23.2821 9.61796C23.663 9.61796 23.9717 9.30921 23.9717 8.92837Z" fill="#EE4E62"/>
</svg>
